# xmcd
#
# Track frame offsets: 
#        150
#        25217
#        49060
#        62640
#
# Disc length: 1186 seconds
#
# Revision: 2
# Processed by: cddbd v1.5.2PL0 Copyright (c) Steve Scherf et al.
# Submitted via: ExactAudioCopy v1.0b3
#
DISCID=2d04a004
DTITLE=Swing out Sister - Where in the World
DYEAR=1989
DGENRE=Pop
TTITLE0=Where in the World (LP Version)
TTITLE1=Taxi Town
TTITLE2=Windmills of your Mind
TTITLE3=Breakout (A new rockin' Version)
EXTD=Track 3 was recorded live for the "Jeff Graham Show" courtesy of 
EXTD=Radio Luxembourg\nand is the best version of this song I ever hea
EXTD=rd
EXTT0=
EXTT1=
EXTT2=
EXTT3=
PLAYORDER=
